<?xml version="1.0" encoding="UTF-8" standalone="no"?>
<!DOCTYPE svg PUBLIC "-//W3C//DTD SVG 1.1//EN" "http://www.w3.org/Graphics/SVG/1.1/DTD/svg11.dtd">
<svg width="100%" height="100%" viewBox="0 0 178 178" version="1.1" xmlns="http://www.w3.org/2000/svg" xmlns:xlink="http://www.w3.org/1999/xlink" xml:space="preserve" xmlns:serif="http://www.serif.com/" style="fill-rule:evenodd;clip-rule:evenodd;">
    <g transform="matrix(1.34673,0,0,1.34673,-5.69423,-5.69423)">
        <path d="M35,70L17.5,87.5" style="fill:none;fill-rule:nonzero;stroke:black;stroke-width:17.5px;"/>
    </g>
    <g transform="matrix(1.34673,0,0,1.34673,-5.69423,-5.69423)">
        <path d="M70,35L52.5,17.5" style="fill:none;fill-rule:nonzero;stroke:black;stroke-width:17.5px;"/>
    </g>
    <g transform="matrix(1.34673,0,0,1.34673,-5.69423,-5.69423)">
        <path d="M35,70L52.5,52.5" style="fill:none;fill-rule:nonzero;stroke:black;stroke-width:17.5px;"/>
    </g>
    <g transform="matrix(1.34673,0,0,1.34673,-5.69423,-5.69423)">
        <path d="M52.5,52.5L61.25,43.75" style="fill:none;fill-rule:nonzero;stroke:black;stroke-width:17.5px;"/>
    </g>
    <g transform="matrix(1.34673,0,0,1.34673,-5.69423,-5.69423)">
        <path d="M17.5,52.5L17.5,17.5" style="fill:none;fill-rule:nonzero;stroke:black;stroke-width:17.5px;"/>
    </g>
    <g transform="matrix(1.34673,0,0,1.34673,-5.69423,-5.69423)">
        <path d="M17.5,52.5L26.25,61.25" style="fill:none;fill-rule:nonzero;stroke:black;stroke-width:17.5px;"/>
    </g>
    <g transform="matrix(1.34673,0,0,1.34673,-5.69423,-5.69423)">
        <path d="M17.5,17.5L52.5,17.5" style="fill:none;fill-rule:nonzero;stroke:black;stroke-width:17.5px;"/>
    </g>
    <g transform="matrix(1.34673,0,0,1.34673,-5.69423,-5.69423)">
        <circle cx="52.5" cy="17.5" r="8.313"/>
    </g>
    <g transform="matrix(1.34673,0,0,1.34673,-5.69423,-5.69423)">
        <circle cx="52.5" cy="52.5" r="8.313"/>
    </g>
    <g transform="matrix(1.34673,0,0,1.34673,-5.69423,-5.69423)">
        <circle cx="17.5" cy="52.5" r="8.313"/>
    </g>
    <g transform="matrix(1.34673,0,0,1.34673,-5.69423,-5.69423)">
        <circle cx="17.5" cy="17.5" r="8.313"/>
    </g>
    <g transform="matrix(1.34673,0,0,1.34673,-5.69423,-5.69423)">
        <circle cx="17.5" cy="17.5" r="8.313"/>
    </g>
    <g transform="matrix(1.34673,0,0,1.34673,-5.69423,-5.69423)">
        <circle cx="52.5" cy="17.5" r="8.313"/>
    </g>
    <g transform="matrix(1.34673,0,0,1.34673,-5.69423,-5.69423)">
        <path d="M70,105L52.5,87.5" style="fill:none;fill-rule:nonzero;stroke:black;stroke-width:17.5px;"/>
    </g>
    <g transform="matrix(1.34673,0,0,1.34673,-5.69423,-5.69423)">
        <path d="M52.5,87.5L43.75,78.75" style="fill:none;fill-rule:nonzero;stroke:black;stroke-width:17.5px;"/>
    </g>
    <g transform="matrix(1.34673,0,0,1.34673,-5.69423,-5.69423)">
        <path d="M52.5,122.5L17.5,122.5" style="fill:none;fill-rule:nonzero;stroke:black;stroke-width:17.5px;"/>
    </g>
    <g transform="matrix(1.34673,0,0,1.34673,-5.69423,-5.69423)">
        <path d="M52.5,122.5L61.25,113.75" style="fill:none;fill-rule:nonzero;stroke:black;stroke-width:17.5px;"/>
    </g>
    <g transform="matrix(1.34673,0,0,1.34673,-5.69423,-5.69423)">
        <path d="M17.5,122.5L17.5,87.5" style="fill:none;fill-rule:nonzero;stroke:black;stroke-width:17.5px;"/>
    </g>
    <g transform="matrix(1.34673,0,0,1.34673,-5.69423,-5.69423)">
        <path d="M35,70L17.5,87.5" style="fill:none;fill-rule:nonzero;stroke:black;stroke-width:17.5px;"/>
    </g>
    <g transform="matrix(1.34673,0,0,1.34673,-5.69423,-5.69423)">
        <circle cx="52.5" cy="87.5" r="8.313"/>
    </g>
    <g transform="matrix(1.34673,0,0,1.34673,-5.69423,-5.69423)">
        <circle cx="52.5" cy="122.5" r="8.313"/>
    </g>
    <g transform="matrix(1.34673,0,0,1.34673,-5.69423,-5.69423)">
        <circle cx="17.5" cy="122.5" r="8.313"/>
    </g>
    <g transform="matrix(1.34673,0,0,1.34673,-5.69423,-5.69423)">
        <circle cx="17.5" cy="122.5" r="8.313"/>
    </g>
    <g transform="matrix(1.34673,0,0,1.34673,-5.69423,-5.69423)">
        <circle cx="17.5" cy="87.5" r="8.313"/>
    </g>
    <g transform="matrix(1.34673,0,0,1.34673,-5.69423,-5.69423)">
        <circle cx="17.5" cy="87.5" r="8.313"/>
    </g>
    <g transform="matrix(1.34673,0,0,1.34673,-5.69423,-5.69423)">
        <path d="M70,35L52.5,17.5" style="fill:none;fill-rule:nonzero;stroke:black;stroke-width:17.5px;"/>
    </g>
    <g transform="matrix(1.34673,0,0,1.34673,-5.69423,-5.69423)">
        <path d="M105,70L87.5,87.5" style="fill:none;fill-rule:nonzero;stroke:black;stroke-width:17.5px;"/>
    </g>
    <g transform="matrix(1.34673,0,0,1.34673,-5.69423,-5.69423)">
        <path d="M70,105L52.5,87.5" style="fill:none;fill-rule:nonzero;stroke:black;stroke-width:17.5px;"/>
    </g>
    <g transform="matrix(1.34673,0,0,1.34673,-5.69423,-5.69423)">
        <path d="M35,70L52.5,52.5" style="fill:none;fill-rule:nonzero;stroke:black;stroke-width:17.5px;"/>
    </g>
    <g transform="matrix(1.34673,0,0,1.34673,-5.69423,-5.69423)">
        <path d="M70,35L87.5,52.5" style="fill:none;fill-rule:nonzero;stroke:black;stroke-width:17.5px;"/>
    </g>
    <g transform="matrix(1.34673,0,0,1.34673,-5.69423,-5.69423)">
        <path d="M70,105L87.5,122.5" style="fill:none;fill-rule:nonzero;stroke:black;stroke-width:17.5px;"/>
    </g>
    <g transform="matrix(1.34673,0,0,1.34673,-5.69423,-5.69423)">
        <path d="M122.5,17.5L122.5,52.5" style="fill:none;fill-rule:nonzero;stroke:black;stroke-width:17.5px;"/>
    </g>
    <g transform="matrix(1.34673,0,0,1.34673,-5.69423,-5.69423)">
        <path d="M105,70L122.5,52.5" style="fill:none;fill-rule:nonzero;stroke:black;stroke-width:17.5px;"/>
    </g>
    <g transform="matrix(1.34673,0,0,1.34673,-5.69423,-5.69423)">
        <path d="M70,35L87.5,52.5" style="fill:none;fill-rule:nonzero;stroke:black;stroke-width:17.5px;"/>
    </g>
    <g transform="matrix(1.34673,0,0,1.34673,-5.69423,-5.69423)">
        <path d="M87.5,52.5L96.25,61.25" style="fill:none;fill-rule:nonzero;stroke:black;stroke-width:17.5px;"/>
    </g>
    <g transform="matrix(1.34673,0,0,1.34673,-5.69423,-5.69423)">
        <path d="M87.5,17.5L122.5,17.5" style="fill:none;fill-rule:nonzero;stroke:black;stroke-width:17.5px;"/>
    </g>
    <g transform="matrix(1.34673,0,0,1.34673,-5.69423,-5.69423)">
        <path d="M87.5,17.5L78.75,26.25" style="fill:none;fill-rule:nonzero;stroke:black;stroke-width:17.5px;"/>
    </g>
    <g transform="matrix(1.34673,0,0,1.34673,-5.69423,-5.69423)">
        <circle cx="122.5" cy="17.5" r="8.313"/>
    </g>
    <g transform="matrix(1.34673,0,0,1.34673,-5.69423,-5.69423)">
        <circle cx="122.5" cy="52.5" r="8.313"/>
    </g>
    <g transform="matrix(1.34673,0,0,1.34673,-5.69423,-5.69423)">
        <circle cx="122.5" cy="52.5" r="8.313"/>
    </g>
    <g transform="matrix(1.34673,0,0,1.34673,-5.69423,-5.69423)">
        <circle cx="87.5" cy="52.5" r="8.313"/>
    </g>
    <g transform="matrix(1.34673,0,0,1.34673,-5.69423,-5.69423)">
        <circle cx="87.5" cy="17.5" r="8.313"/>
    </g>
    <g transform="matrix(1.34673,0,0,1.34673,-5.69423,-5.69423)">
        <circle cx="122.5" cy="17.5" r="8.313"/>
    </g>
    <g transform="matrix(1.34673,0,0,1.34673,-5.69423,-5.69423)">
        <path d="M122.5,87.5L122.5,122.5" style="fill:none;fill-rule:nonzero;stroke:black;stroke-width:17.5px;"/>
    </g>
    <g transform="matrix(1.34673,0,0,1.34673,-5.69423,-5.69423)">
        <path d="M122.5,87.5L113.75,78.75" style="fill:none;fill-rule:nonzero;stroke:black;stroke-width:17.5px;"/>
    </g>
    <g transform="matrix(1.34673,0,0,1.34673,-5.69423,-5.69423)">
        <path d="M122.5,122.5L87.5,122.5" style="fill:none;fill-rule:nonzero;stroke:black;stroke-width:17.5px;"/>
    </g>
    <g transform="matrix(1.34673,0,0,1.34673,-5.69423,-5.69423)">
        <path d="M70,105L87.5,122.5" style="fill:none;fill-rule:nonzero;stroke:black;stroke-width:17.5px;"/>
    </g>
    <g transform="matrix(1.34673,0,0,1.34673,-5.69423,-5.69423)">
        <path d="M105,70L87.5,87.5" style="fill:none;fill-rule:nonzero;stroke:black;stroke-width:17.5px;"/>
    </g>
    <g transform="matrix(1.34673,0,0,1.34673,-5.69423,-5.69423)">
        <path d="M87.5,87.5L78.75,96.25" style="fill:none;fill-rule:nonzero;stroke:black;stroke-width:17.5px;"/>
    </g>
    <g transform="matrix(1.34673,0,0,1.34673,-5.69423,-5.69423)">
        <circle cx="122.5" cy="87.5" r="8.313"/>
    </g>
    <g transform="matrix(1.34673,0,0,1.34673,-5.69423,-5.69423)">
        <circle cx="122.5" cy="122.5" r="8.313"/>
    </g>
    <g transform="matrix(1.34673,0,0,1.34673,-5.69423,-5.69423)">
        <circle cx="122.5" cy="122.5" r="8.313"/>
    </g>
    <g transform="matrix(1.34673,0,0,1.34673,-5.69423,-5.69423)">
        <circle cx="87.5" cy="122.5" r="8.313"/>
    </g>
    <g transform="matrix(1.34673,0,0,1.34673,-5.69423,-5.69423)">
        <circle cx="87.5" cy="122.5" r="8.313"/>
    </g>
    <g transform="matrix(1.34673,0,0,1.34673,-5.69423,-5.69423)">
        <circle cx="87.5" cy="87.5" r="8.313"/>
    </g>
    <g transform="matrix(1.34673,0,0,1.34673,-5.69423,-5.69423)">
        <path d="M105,70L122.5,52.5" style="fill:none;fill-rule:nonzero;stroke:black;stroke-width:17.5px;"/>
    </g>
    <g transform="matrix(1.34673,0,0,1.34673,-5.69423,-5.69423)">
        <path d="M35,70L17.5,87.5" style="fill:none;fill-rule:nonzero;stroke:black;stroke-width:17.5px;"/>
    </g>
    <g transform="matrix(1.34673,0,0,1.34673,-5.69423,-5.69423)">
        <path d="M70,35L52.5,17.5" style="fill:none;fill-rule:nonzero;stroke:black;stroke-width:17.5px;"/>
    </g>
    <g transform="matrix(1.34673,0,0,1.34673,-5.69423,-5.69423)">
        <path d="M35,70L52.5,52.5" style="fill:none;fill-rule:nonzero;stroke:black;stroke-width:17.5px;"/>
    </g>
    <g transform="matrix(1.34673,0,0,1.34673,-5.69423,-5.69423)">
        <path d="M52.5,52.5L61.25,43.75" style="fill:none;fill-rule:nonzero;stroke:black;stroke-width:17.5px;"/>
    </g>
    <g transform="matrix(1.34673,0,0,1.34673,-5.69423,-5.69423)">
        <path d="M17.5,52.5L17.5,17.5" style="fill:none;fill-rule:nonzero;stroke:black;stroke-width:17.5px;"/>
    </g>
    <g transform="matrix(1.34673,0,0,1.34673,-5.69423,-5.69423)">
        <path d="M17.5,52.5L26.25,61.25" style="fill:none;fill-rule:nonzero;stroke:black;stroke-width:17.5px;"/>
    </g>
    <g transform="matrix(1.34673,0,0,1.34673,-5.69423,-5.69423)">
        <path d="M17.5,17.5L52.5,17.5" style="fill:none;fill-rule:nonzero;stroke:black;stroke-width:17.5px;"/>
    </g>
    <g transform="matrix(1.34673,0,0,1.34673,-5.69423,-5.69423)">
        <circle cx="52.5" cy="17.5" r="8.313"/>
    </g>
    <g transform="matrix(1.34673,0,0,1.34673,-5.69423,-5.69423)">
        <circle cx="52.5" cy="52.5" r="8.313"/>
    </g>
    <g transform="matrix(1.34673,0,0,1.34673,-5.69423,-5.69423)">
        <circle cx="17.5" cy="52.5" r="8.313"/>
    </g>
    <g transform="matrix(1.34673,0,0,1.34673,-5.69423,-5.69423)">
        <circle cx="17.5" cy="17.5" r="8.313"/>
    </g>
    <g transform="matrix(1.34673,0,0,1.34673,-5.69423,-5.69423)">
        <circle cx="17.5" cy="17.5" r="8.313"/>
    </g>
    <g transform="matrix(1.34673,0,0,1.34673,-5.69423,-5.69423)">
        <circle cx="52.5" cy="17.5" r="8.313"/>
    </g>
    <g transform="matrix(1.34673,0,0,1.34673,-5.69423,-5.69423)">
        <path d="M70,105L52.5,87.5" style="fill:none;fill-rule:nonzero;stroke:black;stroke-width:17.5px;"/>
    </g>
    <g transform="matrix(1.34673,0,0,1.34673,-5.69423,-5.69423)">
        <path d="M52.5,87.5L43.75,78.75" style="fill:none;fill-rule:nonzero;stroke:black;stroke-width:17.5px;"/>
    </g>
    <g transform="matrix(1.34673,0,0,1.34673,-5.69423,-5.69423)">
        <path d="M52.5,122.5L17.5,122.5" style="fill:none;fill-rule:nonzero;stroke:black;stroke-width:17.5px;"/>
    </g>
    <g transform="matrix(1.34673,0,0,1.34673,-5.69423,-5.69423)">
        <path d="M52.5,122.5L61.25,113.75" style="fill:none;fill-rule:nonzero;stroke:black;stroke-width:17.5px;"/>
    </g>
    <g transform="matrix(1.34673,0,0,1.34673,-5.69423,-5.69423)">
        <path d="M17.5,122.5L17.5,87.5" style="fill:none;fill-rule:nonzero;stroke:black;stroke-width:17.5px;"/>
    </g>
    <g transform="matrix(1.34673,0,0,1.34673,-5.69423,-5.69423)">
        <path d="M35,70L17.5,87.5" style="fill:none;fill-rule:nonzero;stroke:black;stroke-width:17.5px;"/>
    </g>
    <g transform="matrix(1.34673,0,0,1.34673,-5.69423,-5.69423)">
        <circle cx="52.5" cy="87.5" r="8.313"/>
    </g>
    <g transform="matrix(1.34673,0,0,1.34673,-5.69423,-5.69423)">
        <circle cx="52.5" cy="122.5" r="8.313"/>
    </g>
    <g transform="matrix(1.34673,0,0,1.34673,-5.69423,-5.69423)">
        <circle cx="17.5" cy="122.5" r="8.313"/>
    </g>
    <g transform="matrix(1.34673,0,0,1.34673,-5.69423,-5.69423)">
        <circle cx="17.5" cy="122.5" r="8.313"/>
    </g>
    <g transform="matrix(1.34673,0,0,1.34673,-5.69423,-5.69423)">
        <circle cx="17.5" cy="87.5" r="8.313"/>
    </g>
    <g transform="matrix(1.34673,0,0,1.34673,-5.69423,-5.69423)">
        <circle cx="17.5" cy="87.5" r="8.313"/>
    </g>
    <g transform="matrix(1.34673,0,0,1.34673,-5.69423,-5.69423)">
        <path d="M70,35L52.5,17.5" style="fill:none;fill-rule:nonzero;stroke:black;stroke-width:17.5px;"/>
    </g>
    <g transform="matrix(1.34673,0,0,1.34673,-5.69423,-5.69423)">
        <path d="M105,70L87.5,87.5" style="fill:none;fill-rule:nonzero;stroke:black;stroke-width:17.5px;"/>
    </g>
    <g transform="matrix(1.34673,0,0,1.34673,-5.69423,-5.69423)">
        <path d="M70,105L52.5,87.5" style="fill:none;fill-rule:nonzero;stroke:black;stroke-width:17.5px;"/>
    </g>
    <g transform="matrix(1.34673,0,0,1.34673,-5.69423,-5.69423)">
        <path d="M35,70L52.5,52.5" style="fill:none;fill-rule:nonzero;stroke:black;stroke-width:17.5px;"/>
    </g>
    <g transform="matrix(1.34673,0,0,1.34673,-5.69423,-5.69423)">
        <path d="M70,35L87.5,52.5" style="fill:none;fill-rule:nonzero;stroke:black;stroke-width:17.5px;"/>
    </g>
    <g transform="matrix(1.34673,0,0,1.34673,-5.69423,-5.69423)">
        <path d="M70,105L87.5,122.5" style="fill:none;fill-rule:nonzero;stroke:black;stroke-width:17.5px;"/>
    </g>
    <g transform="matrix(1.34673,0,0,1.34673,-5.69423,-5.69423)">
        <path d="M122.5,17.5L122.5,52.5" style="fill:none;fill-rule:nonzero;stroke:black;stroke-width:17.5px;"/>
    </g>
    <g transform="matrix(1.34673,0,0,1.34673,-5.69423,-5.69423)">
        <path d="M105,70L122.5,52.5" style="fill:none;fill-rule:nonzero;stroke:black;stroke-width:17.5px;"/>
    </g>
    <g transform="matrix(1.34673,0,0,1.34673,-5.69423,-5.69423)">
        <path d="M70,35L87.5,52.5" style="fill:none;fill-rule:nonzero;stroke:black;stroke-width:17.5px;"/>
    </g>
    <g transform="matrix(1.34673,0,0,1.34673,-5.69423,-5.69423)">
        <path d="M87.5,52.5L96.25,61.25" style="fill:none;fill-rule:nonzero;stroke:black;stroke-width:17.5px;"/>
    </g>
    <g transform="matrix(1.34673,0,0,1.34673,-5.69423,-5.69423)">
        <path d="M87.5,17.5L122.5,17.5" style="fill:none;fill-rule:nonzero;stroke:black;stroke-width:17.5px;"/>
    </g>
    <g transform="matrix(1.34673,0,0,1.34673,-5.69423,-5.69423)">
        <path d="M87.5,17.5L78.75,26.25" style="fill:none;fill-rule:nonzero;stroke:black;stroke-width:17.5px;"/>
    </g>
    <g transform="matrix(1.34673,0,0,1.34673,-5.69423,-5.69423)">
        <circle cx="122.5" cy="17.5" r="8.313"/>
    </g>
    <g transform="matrix(1.34673,0,0,1.34673,-5.69423,-5.69423)">
        <circle cx="122.5" cy="52.5" r="8.313"/>
    </g>
    <g transform="matrix(1.34673,0,0,1.34673,-5.69423,-5.69423)">
        <circle cx="122.5" cy="52.5" r="8.313"/>
    </g>
    <g transform="matrix(1.34673,0,0,1.34673,-5.69423,-5.69423)">
        <circle cx="87.5" cy="52.5" r="8.313"/>
    </g>
    <g transform="matrix(1.34673,0,0,1.34673,-5.69423,-5.69423)">
        <circle cx="87.5" cy="17.5" r="8.313"/>
    </g>
    <g transform="matrix(1.34673,0,0,1.34673,-5.69423,-5.69423)">
        <circle cx="122.5" cy="17.5" r="8.313"/>
    </g>
    <g transform="matrix(1.34673,0,0,1.34673,-5.69423,-5.69423)">
        <path d="M122.5,87.5L122.5,122.5" style="fill:none;fill-rule:nonzero;stroke:black;stroke-width:17.5px;"/>
    </g>
    <g transform="matrix(1.34673,0,0,1.34673,-5.69423,-5.69423)">
        <path d="M122.5,87.5L113.75,78.75" style="fill:none;fill-rule:nonzero;stroke:black;stroke-width:17.5px;"/>
    </g>
    <g transform="matrix(1.34673,0,0,1.34673,-5.69423,-5.69423)">
        <path d="M122.5,122.5L87.5,122.5" style="fill:none;fill-rule:nonzero;stroke:black;stroke-width:17.5px;"/>
    </g>
    <g transform="matrix(1.34673,0,0,1.34673,-5.69423,-5.69423)">
        <path d="M70,105L87.5,122.5" style="fill:none;fill-rule:nonzero;stroke:black;stroke-width:17.5px;"/>
    </g>
    <g transform="matrix(1.34673,0,0,1.34673,-5.69423,-5.69423)">
        <path d="M105,70L87.5,87.5" style="fill:none;fill-rule:nonzero;stroke:black;stroke-width:17.5px;"/>
    </g>
    <g transform="matrix(1.34673,0,0,1.34673,-5.69423,-5.69423)">
        <path d="M87.5,87.5L78.75,96.25" style="fill:none;fill-rule:nonzero;stroke:black;stroke-width:17.5px;"/>
    </g>
    <g transform="matrix(1.34673,0,0,1.34673,-5.69423,-5.69423)">
        <circle cx="122.5" cy="87.5" r="8.313"/>
    </g>
    <g transform="matrix(1.34673,0,0,1.34673,-5.69423,-5.69423)">
        <circle cx="122.5" cy="122.5" r="8.313"/>
    </g>
    <g transform="matrix(1.34673,0,0,1.34673,-5.69423,-5.69423)">
        <circle cx="122.5" cy="122.5" r="8.313"/>
    </g>
    <g transform="matrix(1.34673,0,0,1.34673,-5.69423,-5.69423)">
        <circle cx="87.5" cy="122.5" r="8.313"/>
    </g>
    <g transform="matrix(1.34673,0,0,1.34673,-5.69423,-5.69423)">
        <circle cx="87.5" cy="122.5" r="8.313"/>
    </g>
    <g transform="matrix(1.34673,0,0,1.34673,-5.69423,-5.69423)">
        <circle cx="87.5" cy="87.5" r="8.313"/>
    </g>
    <g transform="matrix(1.34673,0,0,1.34673,-5.69423,-5.69423)">
        <path d="M105,70L122.5,52.5" style="fill:none;fill-rule:nonzero;stroke:black;stroke-width:17.5px;"/>
    </g>
    <g transform="matrix(1.34673,0,0,1.34673,-5.69423,-5.69423)">
        <path d="M35,70L17.5,87.5" style="fill:none;fill-rule:nonzero;stroke:black;stroke-width:17.5px;"/>
    </g>
    <g transform="matrix(1.34673,0,0,1.34673,-5.69423,-5.69423)">
        <path d="M70,35L52.5,17.5" style="fill:none;fill-rule:nonzero;stroke:black;stroke-width:17.5px;"/>
    </g>
    <g transform="matrix(1.34673,0,0,1.34673,-5.69423,-5.69423)">
        <path d="M35,70L52.5,52.5" style="fill:none;fill-rule:nonzero;stroke:black;stroke-width:17.5px;"/>
    </g>
    <g transform="matrix(1.34673,0,0,1.34673,-5.69423,-5.69423)">
        <path d="M52.5,52.5L61.25,43.75" style="fill:none;fill-rule:nonzero;stroke:black;stroke-width:17.5px;"/>
    </g>
    <g transform="matrix(1.34673,0,0,1.34673,-5.69423,-5.69423)">
        <path d="M17.5,52.5L17.5,17.5" style="fill:none;fill-rule:nonzero;stroke:black;stroke-width:17.5px;"/>
    </g>
    <g transform="matrix(1.34673,0,0,1.34673,-5.69423,-5.69423)">
        <path d="M17.5,52.5L26.25,61.25" style="fill:none;fill-rule:nonzero;stroke:black;stroke-width:17.5px;"/>
    </g>
    <g transform="matrix(1.34673,0,0,1.34673,-5.69423,-5.69423)">
        <path d="M17.5,17.5L52.5,17.5" style="fill:none;fill-rule:nonzero;stroke:black;stroke-width:17.5px;"/>
    </g>
    <g transform="matrix(1.34673,0,0,1.34673,-5.69423,-5.69423)">
        <circle cx="52.5" cy="17.5" r="8.313"/>
    </g>
    <g transform="matrix(1.34673,0,0,1.34673,-5.69423,-5.69423)">
        <circle cx="52.5" cy="52.5" r="8.313"/>
    </g>
    <g transform="matrix(1.34673,0,0,1.34673,-5.69423,-5.69423)">
        <circle cx="17.5" cy="52.5" r="8.313"/>
    </g>
    <g transform="matrix(1.34673,0,0,1.34673,-5.69423,-5.69423)">
        <circle cx="17.5" cy="17.5" r="8.313"/>
    </g>
    <g transform="matrix(1.34673,0,0,1.34673,-5.69423,-5.69423)">
        <circle cx="17.5" cy="17.5" r="8.313"/>
    </g>
    <g transform="matrix(1.34673,0,0,1.34673,-5.69423,-5.69423)">
        <circle cx="52.5" cy="17.5" r="8.313"/>
    </g>
    <g transform="matrix(1.34673,0,0,1.34673,-5.69423,-5.69423)">
        <path d="M70,105L52.5,87.5" style="fill:none;fill-rule:nonzero;stroke:black;stroke-width:17.5px;"/>
    </g>
    <g transform="matrix(1.34673,0,0,1.34673,-5.69423,-5.69423)">
        <path d="M52.5,87.5L43.75,78.75" style="fill:none;fill-rule:nonzero;stroke:black;stroke-width:17.5px;"/>
    </g>
    <g transform="matrix(1.34673,0,0,1.34673,-5.69423,-5.69423)">
        <path d="M52.5,122.5L17.5,122.5" style="fill:none;fill-rule:nonzero;stroke:black;stroke-width:17.5px;"/>
    </g>
    <g transform="matrix(1.34673,0,0,1.34673,-5.69423,-5.69423)">
        <path d="M52.5,122.5L61.25,113.75" style="fill:none;fill-rule:nonzero;stroke:black;stroke-width:17.5px;"/>
    </g>
    <g transform="matrix(1.34673,0,0,1.34673,-5.69423,-5.69423)">
        <path d="M17.5,122.5L17.5,87.5" style="fill:none;fill-rule:nonzero;stroke:black;stroke-width:17.5px;"/>
    </g>
    <g transform="matrix(1.34673,0,0,1.34673,-5.69423,-5.69423)">
        <path d="M35,70L17.5,87.5" style="fill:none;fill-rule:nonzero;stroke:black;stroke-width:17.5px;"/>
    </g>
    <g transform="matrix(1.34673,0,0,1.34673,-5.69423,-5.69423)">
        <circle cx="52.5" cy="87.5" r="8.313"/>
    </g>
    <g transform="matrix(1.34673,0,0,1.34673,-5.69423,-5.69423)">
        <circle cx="52.5" cy="122.5" r="8.313"/>
    </g>
    <g transform="matrix(1.34673,0,0,1.34673,-5.69423,-5.69423)">
        <circle cx="17.5" cy="122.5" r="8.313"/>
    </g>
    <g transform="matrix(1.34673,0,0,1.34673,-5.69423,-5.69423)">
        <circle cx="17.5" cy="122.5" r="8.313"/>
    </g>
    <g transform="matrix(1.34673,0,0,1.34673,-5.69423,-5.69423)">
        <circle cx="17.5" cy="87.5" r="8.313"/>
    </g>
    <g transform="matrix(1.34673,0,0,1.34673,-5.69423,-5.69423)">
        <circle cx="17.5" cy="87.5" r="8.313"/>
    </g>
    <g transform="matrix(1.34673,0,0,1.34673,-5.69423,-5.69423)">
        <path d="M70,35L52.5,17.5" style="fill:none;fill-rule:nonzero;stroke:black;stroke-width:17.5px;"/>
    </g>
    <g transform="matrix(1.34673,0,0,1.34673,-5.69423,-5.69423)">
        <path d="M105,70L87.5,87.5" style="fill:none;fill-rule:nonzero;stroke:black;stroke-width:17.5px;"/>
    </g>
    <g transform="matrix(1.34673,0,0,1.34673,-5.69423,-5.69423)">
        <path d="M70,105L52.5,87.5" style="fill:none;fill-rule:nonzero;stroke:black;stroke-width:17.5px;"/>
    </g>
    <g transform="matrix(1.34673,0,0,1.34673,-5.69423,-5.69423)">
        <path d="M35,70L52.5,52.5" style="fill:none;fill-rule:nonzero;stroke:black;stroke-width:17.5px;"/>
    </g>
    <g transform="matrix(1.34673,0,0,1.34673,-5.69423,-5.69423)">
        <path d="M70,35L87.5,52.5" style="fill:none;fill-rule:nonzero;stroke:black;stroke-width:17.5px;"/>
    </g>
    <g transform="matrix(1.34673,0,0,1.34673,-5.69423,-5.69423)">
        <path d="M70,105L87.5,122.5" style="fill:none;fill-rule:nonzero;stroke:black;stroke-width:17.5px;"/>
    </g>
    <g transform="matrix(1.34673,0,0,1.34673,-5.69423,-5.69423)">
        <path d="M122.5,17.5L122.5,52.5" style="fill:none;fill-rule:nonzero;stroke:black;stroke-width:17.5px;"/>
    </g>
    <g transform="matrix(1.34673,0,0,1.34673,-5.69423,-5.69423)">
        <path d="M105,70L122.5,52.5" style="fill:none;fill-rule:nonzero;stroke:black;stroke-width:17.5px;"/>
    </g>
    <g transform="matrix(1.34673,0,0,1.34673,-5.69423,-5.69423)">
        <path d="M70,35L87.5,52.5" style="fill:none;fill-rule:nonzero;stroke:black;stroke-width:17.5px;"/>
    </g>
    <g transform="matrix(1.34673,0,0,1.34673,-5.69423,-5.69423)">
        <path d="M87.5,52.5L96.25,61.25" style="fill:none;fill-rule:nonzero;stroke:black;stroke-width:17.5px;"/>
    </g>
    <g transform="matrix(1.34673,0,0,1.34673,-5.69423,-5.69423)">
        <path d="M87.5,17.5L122.5,17.5" style="fill:none;fill-rule:nonzero;stroke:black;stroke-width:17.5px;"/>
    </g>
    <g transform="matrix(1.34673,0,0,1.34673,-5.69423,-5.69423)">
        <path d="M87.5,17.5L78.75,26.25" style="fill:none;fill-rule:nonzero;stroke:black;stroke-width:17.5px;"/>
    </g>
    <g transform="matrix(1.34673,0,0,1.34673,-5.69423,-5.69423)">
        <circle cx="122.5" cy="17.5" r="8.313"/>
    </g>
    <g transform="matrix(1.34673,0,0,1.34673,-5.69423,-5.69423)">
        <circle cx="122.5" cy="52.5" r="8.313"/>
    </g>
    <g transform="matrix(1.34673,0,0,1.34673,-5.69423,-5.69423)">
        <circle cx="122.5" cy="52.5" r="8.313"/>
    </g>
    <g transform="matrix(1.34673,0,0,1.34673,-5.69423,-5.69423)">
        <circle cx="87.5" cy="52.5" r="8.313"/>
    </g>
    <g transform="matrix(1.34673,0,0,1.34673,-5.69423,-5.69423)">
        <circle cx="87.5" cy="17.5" r="8.313"/>
    </g>
    <g transform="matrix(1.34673,0,0,1.34673,-5.69423,-5.69423)">
        <circle cx="122.5" cy="17.5" r="8.313"/>
    </g>
    <g transform="matrix(1.34673,0,0,1.34673,-5.69423,-5.69423)">
        <path d="M122.5,87.5L122.5,122.5" style="fill:none;fill-rule:nonzero;stroke:black;stroke-width:17.5px;"/>
    </g>
    <g transform="matrix(1.34673,0,0,1.34673,-5.69423,-5.69423)">
        <path d="M122.5,87.5L113.75,78.75" style="fill:none;fill-rule:nonzero;stroke:black;stroke-width:17.5px;"/>
    </g>
    <g transform="matrix(1.34673,0,0,1.34673,-5.69423,-5.69423)">
        <path d="M122.5,122.5L87.5,122.5" style="fill:none;fill-rule:nonzero;stroke:black;stroke-width:17.5px;"/>
    </g>
    <g transform="matrix(1.34673,0,0,1.34673,-5.69423,-5.69423)">
        <path d="M70,105L87.5,122.5" style="fill:none;fill-rule:nonzero;stroke:black;stroke-width:17.5px;"/>
    </g>
    <g transform="matrix(1.34673,0,0,1.34673,-5.69423,-5.69423)">
        <path d="M105,70L87.5,87.5" style="fill:none;fill-rule:nonzero;stroke:black;stroke-width:17.5px;"/>
    </g>
    <g transform="matrix(1.34673,0,0,1.34673,-5.69423,-5.69423)">
        <path d="M87.5,87.5L78.75,96.25" style="fill:none;fill-rule:nonzero;stroke:black;stroke-width:17.5px;"/>
    </g>
    <g transform="matrix(1.34673,0,0,1.34673,-5.69423,-5.69423)">
        <circle cx="122.5" cy="87.5" r="8.313"/>
    </g>
    <g transform="matrix(1.34673,0,0,1.34673,-5.69423,-5.69423)">
        <circle cx="122.5" cy="122.5" r="8.313"/>
    </g>
    <g transform="matrix(1.34673,0,0,1.34673,-5.69423,-5.69423)">
        <circle cx="122.5" cy="122.5" r="8.313"/>
    </g>
    <g transform="matrix(1.34673,0,0,1.34673,-5.69423,-5.69423)">
        <circle cx="87.5" cy="122.5" r="8.313"/>
    </g>
    <g transform="matrix(1.34673,0,0,1.34673,-5.69423,-5.69423)">
        <circle cx="87.5" cy="122.5" r="8.313"/>
    </g>
    <g transform="matrix(1.34673,0,0,1.34673,-5.69423,-5.69423)">
        <circle cx="87.5" cy="87.5" r="8.313"/>
    </g>
    <g transform="matrix(1.34673,0,0,1.34673,-5.69423,-5.69423)">
        <path d="M105,70L122.5,52.5" style="fill:none;fill-rule:nonzero;stroke:black;stroke-width:17.5px;"/>
    </g>
</svg>
