<?xml version="1.0" encoding="UTF-8" standalone="no"?>
<!DOCTYPE svg PUBLIC "-//W3C//DTD SVG 1.1//EN" "http://www.w3.org/Graphics/SVG/1.1/DTD/svg11.dtd">
<svg width="100%" height="100%" viewBox="0 0 560 140" version="1.1" xmlns="http://www.w3.org/2000/svg" xmlns:xlink="http://www.w3.org/1999/xlink" xml:space="preserve" xmlns:serif="http://www.serif.com/" style="fill-rule:evenodd;clip-rule:evenodd;">
    <path d="M35,70L17.5,87.5" style="fill:none;fill-rule:nonzero;stroke:black;stroke-width:17.5px;"/>
    <path d="M70,35L52.5,17.5" style="fill:none;fill-rule:nonzero;stroke:black;stroke-width:17.5px;"/>
    <path d="M35,70L52.5,52.5" style="fill:none;fill-rule:nonzero;stroke:black;stroke-width:17.5px;"/>
    <path d="M52.5,52.5L61.25,43.75" style="fill:none;fill-rule:nonzero;stroke:black;stroke-width:17.5px;"/>
    <path d="M17.5,52.5L17.5,17.5" style="fill:none;fill-rule:nonzero;stroke:black;stroke-width:17.5px;"/>
    <path d="M17.5,52.5L26.25,61.25" style="fill:none;fill-rule:nonzero;stroke:black;stroke-width:17.5px;"/>
    <path d="M17.5,17.5L52.5,17.5" style="fill:none;fill-rule:nonzero;stroke:black;stroke-width:17.5px;"/>
    <circle cx="52.5" cy="17.5" r="8.313"/>
    <circle cx="52.5" cy="52.5" r="8.313"/>
    <circle cx="17.5" cy="52.5" r="8.313"/>
    <circle cx="17.5" cy="17.5" r="8.313"/>
    <circle cx="17.5" cy="17.5" r="8.313"/>
    <circle cx="52.5" cy="17.5" r="8.313"/>
    <path d="M70,105L52.5,87.5" style="fill:none;fill-rule:nonzero;stroke:black;stroke-width:17.5px;"/>
    <path d="M52.5,87.5L43.75,78.75" style="fill:none;fill-rule:nonzero;stroke:black;stroke-width:17.5px;"/>
    <path d="M52.5,122.5L17.5,122.5" style="fill:none;fill-rule:nonzero;stroke:black;stroke-width:17.5px;"/>
    <path d="M52.5,122.5L61.25,113.75" style="fill:none;fill-rule:nonzero;stroke:black;stroke-width:17.5px;"/>
    <path d="M17.5,122.5L17.5,87.5" style="fill:none;fill-rule:nonzero;stroke:black;stroke-width:17.5px;"/>
    <path d="M35,70L17.5,87.5" style="fill:none;fill-rule:nonzero;stroke:black;stroke-width:17.5px;"/>
    <circle cx="52.5" cy="87.5" r="8.313"/>
    <circle cx="52.5" cy="122.5" r="8.313"/>
    <circle cx="17.5" cy="122.5" r="8.313"/>
    <circle cx="17.5" cy="122.5" r="8.313"/>
    <circle cx="17.5" cy="87.5" r="8.313"/>
    <circle cx="17.5" cy="87.5" r="8.313"/>
    <path d="M70,35L52.5,17.5" style="fill:none;fill-rule:nonzero;stroke:black;stroke-width:17.5px;"/>
    <path d="M105,70L87.5,87.5" style="fill:none;fill-rule:nonzero;stroke:black;stroke-width:17.5px;"/>
    <path d="M70,105L52.5,87.5" style="fill:none;fill-rule:nonzero;stroke:black;stroke-width:17.5px;"/>
    <path d="M35,70L52.5,52.5" style="fill:none;fill-rule:nonzero;stroke:black;stroke-width:17.5px;"/>
    <path d="M70,35L87.5,52.5" style="fill:none;fill-rule:nonzero;stroke:black;stroke-width:17.5px;"/>
    <path d="M70,105L87.5,122.5" style="fill:none;fill-rule:nonzero;stroke:black;stroke-width:17.5px;"/>
    <path d="M122.5,17.5L122.5,52.5" style="fill:none;fill-rule:nonzero;stroke:black;stroke-width:17.5px;"/>
    <path d="M105,70L122.5,52.5" style="fill:none;fill-rule:nonzero;stroke:black;stroke-width:17.5px;"/>
    <path d="M70,35L87.5,52.5" style="fill:none;fill-rule:nonzero;stroke:black;stroke-width:17.5px;"/>
    <path d="M87.5,52.5L96.25,61.25" style="fill:none;fill-rule:nonzero;stroke:black;stroke-width:17.5px;"/>
    <path d="M87.5,17.5L122.5,17.5" style="fill:none;fill-rule:nonzero;stroke:black;stroke-width:17.5px;"/>
    <path d="M87.5,17.5L78.75,26.25" style="fill:none;fill-rule:nonzero;stroke:black;stroke-width:17.5px;"/>
    <circle cx="122.5" cy="17.5" r="8.313"/>
    <circle cx="122.5" cy="52.5" r="8.313"/>
    <circle cx="122.5" cy="52.5" r="8.313"/>
    <circle cx="87.5" cy="52.5" r="8.313"/>
    <circle cx="87.5" cy="17.5" r="8.313"/>
    <circle cx="122.5" cy="17.5" r="8.313"/>
    <path d="M122.5,87.5L122.5,122.5" style="fill:none;fill-rule:nonzero;stroke:black;stroke-width:17.5px;"/>
    <path d="M122.5,87.5L113.75,78.75" style="fill:none;fill-rule:nonzero;stroke:black;stroke-width:17.5px;"/>
    <path d="M122.5,122.5L87.5,122.5" style="fill:none;fill-rule:nonzero;stroke:black;stroke-width:17.5px;"/>
    <path d="M70,105L87.5,122.5" style="fill:none;fill-rule:nonzero;stroke:black;stroke-width:17.5px;"/>
    <path d="M105,70L87.5,87.5" style="fill:none;fill-rule:nonzero;stroke:black;stroke-width:17.5px;"/>
    <path d="M87.5,87.5L78.75,96.25" style="fill:none;fill-rule:nonzero;stroke:black;stroke-width:17.5px;"/>
    <circle cx="122.5" cy="87.5" r="8.313"/>
    <circle cx="122.5" cy="122.5" r="8.313"/>
    <circle cx="122.5" cy="122.5" r="8.313"/>
    <circle cx="87.5" cy="122.5" r="8.313"/>
    <circle cx="87.5" cy="122.5" r="8.313"/>
    <circle cx="87.5" cy="87.5" r="8.313"/>
    <path d="M157.5,52.5L157.5,87.5" style="fill:none;fill-rule:nonzero;stroke:black;stroke-width:17.5px;"/>
    <path d="M105,70L122.5,52.5" style="fill:none;fill-rule:nonzero;stroke:black;stroke-width:17.5px;"/>
    <circle cx="157.5" cy="52.5" r="8.313"/>
    <circle cx="157.5" cy="87.5" r="8.313"/>
    <path d="M210,35L192.5,17.5" style="fill:none;fill-rule:nonzero;stroke:black;stroke-width:17.5px;"/>
    <path d="M157.5,52.5L157.5,17.5" style="fill:none;fill-rule:nonzero;stroke:black;stroke-width:17.5px;"/>
    <path d="M157.5,17.5L192.5,17.5" style="fill:none;fill-rule:nonzero;stroke:black;stroke-width:17.5px;"/>
    <circle cx="192.5" cy="17.5" r="8.313"/>
    <circle cx="157.5" cy="52.5" r="8.313"/>
    <circle cx="157.5" cy="17.5" r="8.313"/>
    <circle cx="157.5" cy="17.5" r="8.313"/>
    <circle cx="192.5" cy="17.5" r="8.313"/>
    <path d="M192.5,87.5L192.5,122.5" style="fill:none;fill-rule:nonzero;stroke:black;stroke-width:17.5px;"/>
    <path d="M192.5,122.5L157.5,122.5" style="fill:none;fill-rule:nonzero;stroke:black;stroke-width:17.5px;"/>
    <path d="M157.5,122.5L157.5,87.5" style="fill:none;fill-rule:nonzero;stroke:black;stroke-width:17.5px;"/>
    <circle cx="192.5" cy="87.5" r="8.313"/>
    <circle cx="192.5" cy="122.5" r="8.313"/>
    <circle cx="192.5" cy="122.5" r="8.313"/>
    <circle cx="157.5" cy="122.5" r="8.313"/>
    <circle cx="157.5" cy="122.5" r="8.313"/>
    <circle cx="157.5" cy="87.5" r="8.313"/>
    <path d="M210,35L192.5,17.5" style="fill:none;fill-rule:nonzero;stroke:black;stroke-width:17.5px;"/>
    <path d="M227.5,52.5L227.5,87.5" style="fill:none;fill-rule:nonzero;stroke:black;stroke-width:17.5px;"/>
    <path d="M192.5,87.5L192.5,52.5" style="fill:none;fill-rule:nonzero;stroke:black;stroke-width:17.5px;"/>
    <path d="M192.5,52.5L201.25,43.75" style="fill:none;fill-rule:nonzero;stroke:black;stroke-width:17.5px;"/>
    <path d="M210,35L227.5,52.5" style="fill:none;fill-rule:nonzero;stroke:black;stroke-width:17.5px;"/>
    <circle cx="227.5" cy="52.5" r="8.313"/>
    <circle cx="227.5" cy="87.5" r="8.313"/>
    <circle cx="192.5" cy="87.5" r="8.313"/>
    <circle cx="192.5" cy="52.5" r="8.313"/>
    <path d="M262.5,17.5L262.5,52.5" style="fill:none;fill-rule:nonzero;stroke:black;stroke-width:17.5px;"/>
    <path d="M210,35L227.5,52.5" style="fill:none;fill-rule:nonzero;stroke:black;stroke-width:17.5px;"/>
    <path d="M227.5,17.5L262.5,17.5" style="fill:none;fill-rule:nonzero;stroke:black;stroke-width:17.5px;"/>
    <path d="M227.5,17.5L218.75,26.25" style="fill:none;fill-rule:nonzero;stroke:black;stroke-width:17.5px;"/>
    <circle cx="262.5" cy="17.5" r="8.313"/>
    <circle cx="262.5" cy="52.5" r="8.313"/>
    <circle cx="227.5" cy="52.5" r="8.313"/>
    <circle cx="227.5" cy="17.5" r="8.313"/>
    <circle cx="262.5" cy="17.5" r="8.313"/>
    <path d="M262.5,87.5L262.5,122.5" style="fill:none;fill-rule:nonzero;stroke:black;stroke-width:17.5px;"/>
    <path d="M262.5,122.5L227.5,122.5" style="fill:none;fill-rule:nonzero;stroke:black;stroke-width:17.5px;"/>
    <path d="M227.5,122.5L227.5,87.5" style="fill:none;fill-rule:nonzero;stroke:black;stroke-width:17.5px;"/>
    <circle cx="262.5" cy="87.5" r="8.313"/>
    <circle cx="262.5" cy="122.5" r="8.313"/>
    <circle cx="262.5" cy="122.5" r="8.313"/>
    <circle cx="227.5" cy="122.5" r="8.313"/>
    <circle cx="227.5" cy="122.5" r="8.313"/>
    <circle cx="227.5" cy="87.5" r="8.313"/>
    <path d="M262.5,87.5L262.5,52.5" style="fill:none;fill-rule:nonzero;stroke:black;stroke-width:17.5px;"/>
    <circle cx="262.5" cy="87.5" r="8.313"/>
    <circle cx="262.5" cy="52.5" r="8.313"/>
    <path d="M350,35L332.5,17.5" style="fill:none;fill-rule:nonzero;stroke:black;stroke-width:17.5px;"/>
    <path d="M332.5,52.5L297.5,52.5" style="fill:none;fill-rule:nonzero;stroke:black;stroke-width:17.5px;"/>
    <path d="M332.5,52.5L341.25,43.75" style="fill:none;fill-rule:nonzero;stroke:black;stroke-width:17.5px;"/>
    <path d="M297.5,52.5L297.5,17.5" style="fill:none;fill-rule:nonzero;stroke:black;stroke-width:17.5px;"/>
    <path d="M297.5,17.5L332.5,17.5" style="fill:none;fill-rule:nonzero;stroke:black;stroke-width:17.5px;"/>
    <circle cx="332.5" cy="17.5" r="8.313"/>
    <circle cx="332.5" cy="52.5" r="8.313"/>
    <circle cx="297.5" cy="52.5" r="8.313"/>
    <circle cx="297.5" cy="52.5" r="8.313"/>
    <circle cx="297.5" cy="17.5" r="8.313"/>
    <circle cx="297.5" cy="17.5" r="8.313"/>
    <circle cx="332.5" cy="17.5" r="8.313"/>
    <path d="M350,105L332.5,87.5" style="fill:none;fill-rule:nonzero;stroke:black;stroke-width:17.5px;"/>
    <path d="M332.5,122.5L297.5,122.5" style="fill:none;fill-rule:nonzero;stroke:black;stroke-width:17.5px;"/>
    <path d="M332.5,122.5L341.25,113.75" style="fill:none;fill-rule:nonzero;stroke:black;stroke-width:17.5px;"/>
    <path d="M297.5,122.5L297.5,87.5" style="fill:none;fill-rule:nonzero;stroke:black;stroke-width:17.5px;"/>
    <path d="M297.5,87.5L332.5,87.5" style="fill:none;fill-rule:nonzero;stroke:black;stroke-width:17.5px;"/>
    <circle cx="332.5" cy="87.5" r="8.313"/>
    <circle cx="332.5" cy="122.5" r="8.313"/>
    <circle cx="297.5" cy="122.5" r="8.313"/>
    <circle cx="297.5" cy="122.5" r="8.313"/>
    <circle cx="297.5" cy="87.5" r="8.313"/>
    <circle cx="297.5" cy="87.5" r="8.313"/>
    <circle cx="332.5" cy="87.5" r="8.313"/>
    <path d="M350,35L332.5,17.5" style="fill:none;fill-rule:nonzero;stroke:black;stroke-width:17.5px;"/>
    <path d="M367.5,52.5L367.5,87.5" style="fill:none;fill-rule:nonzero;stroke:black;stroke-width:17.5px;"/>
    <path d="M367.5,87.5L358.75,96.25" style="fill:none;fill-rule:nonzero;stroke:black;stroke-width:17.5px;"/>
    <path d="M350,105L332.5,87.5" style="fill:none;fill-rule:nonzero;stroke:black;stroke-width:17.5px;"/>
    <path d="M350,35L367.5,52.5" style="fill:none;fill-rule:nonzero;stroke:black;stroke-width:17.5px;"/>
    <circle cx="367.5" cy="52.5" r="8.313"/>
    <circle cx="367.5" cy="87.5" r="8.313"/>
    <path d="M350,105L367.5,122.5" style="fill:none;fill-rule:nonzero;stroke:black;stroke-width:17.5px;"/>
    <path d="M402.5,17.5L402.5,52.5" style="fill:none;fill-rule:nonzero;stroke:black;stroke-width:17.5px;"/>
    <path d="M350,35L367.5,52.5" style="fill:none;fill-rule:nonzero;stroke:black;stroke-width:17.5px;"/>
    <path d="M367.5,17.5L402.5,17.5" style="fill:none;fill-rule:nonzero;stroke:black;stroke-width:17.5px;"/>
    <path d="M367.5,17.5L358.75,26.25" style="fill:none;fill-rule:nonzero;stroke:black;stroke-width:17.5px;"/>
    <circle cx="402.5" cy="17.5" r="8.313"/>
    <circle cx="402.5" cy="52.5" r="8.313"/>
    <circle cx="367.5" cy="52.5" r="8.313"/>
    <circle cx="367.5" cy="17.5" r="8.313"/>
    <circle cx="402.5" cy="17.5" r="8.313"/>
    <path d="M402.5,87.5L402.5,122.5" style="fill:none;fill-rule:nonzero;stroke:black;stroke-width:17.5px;"/>
    <path d="M402.5,122.5L367.5,122.5" style="fill:none;fill-rule:nonzero;stroke:black;stroke-width:17.5px;"/>
    <path d="M350,105L367.5,122.5" style="fill:none;fill-rule:nonzero;stroke:black;stroke-width:17.5px;"/>
    <circle cx="402.5" cy="87.5" r="8.313"/>
    <circle cx="402.5" cy="122.5" r="8.313"/>
    <circle cx="402.5" cy="122.5" r="8.313"/>
    <circle cx="367.5" cy="122.5" r="8.313"/>
    <circle cx="367.5" cy="122.5" r="8.313"/>
    <path d="M437.5,52.5L437.5,87.5" style="fill:none;fill-rule:nonzero;stroke:black;stroke-width:17.5px;"/>
    <path d="M402.5,87.5L402.5,52.5" style="fill:none;fill-rule:nonzero;stroke:black;stroke-width:17.5px;"/>
    <circle cx="437.5" cy="52.5" r="8.313"/>
    <circle cx="437.5" cy="87.5" r="8.313"/>
    <circle cx="402.5" cy="87.5" r="8.313"/>
    <circle cx="402.5" cy="52.5" r="8.313"/>
    <path d="M490,35L472.5,17.5" style="fill:none;fill-rule:nonzero;stroke:black;stroke-width:17.5px;"/>
    <path d="M437.5,52.5L437.5,17.5" style="fill:none;fill-rule:nonzero;stroke:black;stroke-width:17.5px;"/>
    <path d="M437.5,17.5L472.5,17.5" style="fill:none;fill-rule:nonzero;stroke:black;stroke-width:17.5px;"/>
    <circle cx="472.5" cy="17.5" r="8.313"/>
    <circle cx="437.5" cy="52.5" r="8.313"/>
    <circle cx="437.5" cy="17.5" r="8.313"/>
    <circle cx="437.5" cy="17.5" r="8.313"/>
    <circle cx="472.5" cy="17.5" r="8.313"/>
    <path d="M472.5,87.5L472.5,122.5" style="fill:none;fill-rule:nonzero;stroke:black;stroke-width:17.5px;"/>
    <path d="M472.5,122.5L437.5,122.5" style="fill:none;fill-rule:nonzero;stroke:black;stroke-width:17.5px;"/>
    <path d="M437.5,122.5L437.5,87.5" style="fill:none;fill-rule:nonzero;stroke:black;stroke-width:17.5px;"/>
    <circle cx="472.5" cy="87.5" r="8.313"/>
    <circle cx="472.5" cy="122.5" r="8.313"/>
    <circle cx="472.5" cy="122.5" r="8.313"/>
    <circle cx="437.5" cy="122.5" r="8.313"/>
    <circle cx="437.5" cy="122.5" r="8.313"/>
    <circle cx="437.5" cy="87.5" r="8.313"/>
    <path d="M490,35L472.5,17.5" style="fill:none;fill-rule:nonzero;stroke:black;stroke-width:17.5px;"/>
    <path d="M472.5,87.5L472.5,52.5" style="fill:none;fill-rule:nonzero;stroke:black;stroke-width:17.5px;"/>
    <path d="M472.5,52.5L481.25,43.75" style="fill:none;fill-rule:nonzero;stroke:black;stroke-width:17.5px;"/>
    <path d="M490,35L507.5,52.5" style="fill:none;fill-rule:nonzero;stroke:black;stroke-width:17.5px;"/>
    <circle cx="472.5" cy="87.5" r="8.313"/>
    <circle cx="472.5" cy="52.5" r="8.313"/>
    <path d="M542.5,17.5L542.5,52.5" style="fill:none;fill-rule:nonzero;stroke:black;stroke-width:17.5px;"/>
    <path d="M542.5,52.5L507.5,52.5" style="fill:none;fill-rule:nonzero;stroke:black;stroke-width:17.5px;"/>
    <path d="M490,35L507.5,52.5" style="fill:none;fill-rule:nonzero;stroke:black;stroke-width:17.5px;"/>
    <path d="M507.5,17.5L542.5,17.5" style="fill:none;fill-rule:nonzero;stroke:black;stroke-width:17.5px;"/>
    <path d="M507.5,17.5L498.75,26.25" style="fill:none;fill-rule:nonzero;stroke:black;stroke-width:17.5px;"/>
    <circle cx="542.5" cy="17.5" r="8.313"/>
    <circle cx="542.5" cy="52.5" r="8.313"/>
    <circle cx="542.5" cy="52.5" r="8.313"/>
    <circle cx="507.5" cy="52.5" r="8.313"/>
    <circle cx="507.5" cy="52.5" r="8.313"/>
    <circle cx="507.5" cy="17.5" r="8.313"/>
    <circle cx="542.5" cy="17.5" r="8.313"/>
    <path d="M542.5,87.5L542.5,122.5" style="fill:none;fill-rule:nonzero;stroke:black;stroke-width:17.5px;"/>
    <path d="M542.5,122.5L507.5,122.5" style="fill:none;fill-rule:nonzero;stroke:black;stroke-width:17.5px;"/>
    <path d="M507.5,122.5L507.5,87.5" style="fill:none;fill-rule:nonzero;stroke:black;stroke-width:17.5px;"/>
    <path d="M507.5,87.5L542.5,87.5" style="fill:none;fill-rule:nonzero;stroke:black;stroke-width:17.5px;"/>
    <circle cx="542.5" cy="87.5" r="8.313"/>
    <circle cx="542.5" cy="122.5" r="8.313"/>
    <circle cx="542.5" cy="122.5" r="8.313"/>
    <circle cx="507.5" cy="122.5" r="8.313"/>
    <circle cx="507.5" cy="122.5" r="8.313"/>
    <circle cx="507.5" cy="87.5" r="8.313"/>
    <circle cx="507.5" cy="87.5" r="8.313"/>
    <circle cx="542.5" cy="87.5" r="8.313"/>
    <path d="M35,70L17.5,87.5" style="fill:none;fill-rule:nonzero;stroke:black;stroke-width:17.5px;"/>
    <path d="M70,35L52.5,17.5" style="fill:none;fill-rule:nonzero;stroke:black;stroke-width:17.5px;"/>
    <path d="M35,70L52.5,52.5" style="fill:none;fill-rule:nonzero;stroke:black;stroke-width:17.5px;"/>
    <path d="M52.5,52.5L61.25,43.75" style="fill:none;fill-rule:nonzero;stroke:black;stroke-width:17.5px;"/>
    <path d="M17.5,52.5L17.5,17.5" style="fill:none;fill-rule:nonzero;stroke:black;stroke-width:17.5px;"/>
    <path d="M17.5,52.5L26.25,61.25" style="fill:none;fill-rule:nonzero;stroke:black;stroke-width:17.5px;"/>
    <path d="M17.5,17.5L52.5,17.5" style="fill:none;fill-rule:nonzero;stroke:black;stroke-width:17.5px;"/>
    <circle cx="52.5" cy="17.5" r="8.313"/>
    <circle cx="52.5" cy="52.5" r="8.313"/>
    <circle cx="17.5" cy="52.5" r="8.313"/>
    <circle cx="17.5" cy="17.5" r="8.313"/>
    <circle cx="17.5" cy="17.5" r="8.313"/>
    <circle cx="52.5" cy="17.5" r="8.313"/>
    <path d="M70,105L52.5,87.5" style="fill:none;fill-rule:nonzero;stroke:black;stroke-width:17.5px;"/>
    <path d="M52.5,87.5L43.75,78.75" style="fill:none;fill-rule:nonzero;stroke:black;stroke-width:17.5px;"/>
    <path d="M52.5,122.5L17.5,122.5" style="fill:none;fill-rule:nonzero;stroke:black;stroke-width:17.5px;"/>
    <path d="M52.5,122.5L61.25,113.75" style="fill:none;fill-rule:nonzero;stroke:black;stroke-width:17.5px;"/>
    <path d="M17.5,122.5L17.5,87.5" style="fill:none;fill-rule:nonzero;stroke:black;stroke-width:17.5px;"/>
    <path d="M35,70L17.5,87.5" style="fill:none;fill-rule:nonzero;stroke:black;stroke-width:17.5px;"/>
    <circle cx="52.5" cy="87.5" r="8.313"/>
    <circle cx="52.5" cy="122.5" r="8.313"/>
    <circle cx="17.5" cy="122.5" r="8.313"/>
    <circle cx="17.5" cy="122.5" r="8.313"/>
    <circle cx="17.5" cy="87.5" r="8.313"/>
    <circle cx="17.5" cy="87.5" r="8.313"/>
    <path d="M70,35L52.5,17.5" style="fill:none;fill-rule:nonzero;stroke:black;stroke-width:17.5px;"/>
    <path d="M105,70L87.5,87.5" style="fill:none;fill-rule:nonzero;stroke:black;stroke-width:17.5px;"/>
    <path d="M70,105L52.5,87.5" style="fill:none;fill-rule:nonzero;stroke:black;stroke-width:17.5px;"/>
    <path d="M35,70L52.5,52.5" style="fill:none;fill-rule:nonzero;stroke:black;stroke-width:17.5px;"/>
    <path d="M70,35L87.5,52.5" style="fill:none;fill-rule:nonzero;stroke:black;stroke-width:17.5px;"/>
    <path d="M70,105L87.5,122.5" style="fill:none;fill-rule:nonzero;stroke:black;stroke-width:17.5px;"/>
    <path d="M122.5,17.5L122.5,52.5" style="fill:none;fill-rule:nonzero;stroke:black;stroke-width:17.5px;"/>
    <path d="M105,70L122.5,52.5" style="fill:none;fill-rule:nonzero;stroke:black;stroke-width:17.5px;"/>
    <path d="M70,35L87.5,52.5" style="fill:none;fill-rule:nonzero;stroke:black;stroke-width:17.5px;"/>
    <path d="M87.5,52.5L96.25,61.25" style="fill:none;fill-rule:nonzero;stroke:black;stroke-width:17.5px;"/>
    <path d="M87.5,17.5L122.5,17.5" style="fill:none;fill-rule:nonzero;stroke:black;stroke-width:17.5px;"/>
    <path d="M87.5,17.5L78.75,26.25" style="fill:none;fill-rule:nonzero;stroke:black;stroke-width:17.5px;"/>
    <circle cx="122.5" cy="17.5" r="8.313"/>
    <circle cx="122.5" cy="52.5" r="8.313"/>
    <circle cx="122.5" cy="52.5" r="8.313"/>
    <circle cx="87.5" cy="52.5" r="8.313"/>
    <circle cx="87.5" cy="17.5" r="8.313"/>
    <circle cx="122.5" cy="17.5" r="8.313"/>
    <path d="M122.5,87.5L122.5,122.5" style="fill:none;fill-rule:nonzero;stroke:black;stroke-width:17.5px;"/>
    <path d="M122.5,87.5L113.75,78.75" style="fill:none;fill-rule:nonzero;stroke:black;stroke-width:17.5px;"/>
    <path d="M122.5,122.5L87.5,122.5" style="fill:none;fill-rule:nonzero;stroke:black;stroke-width:17.5px;"/>
    <path d="M70,105L87.5,122.5" style="fill:none;fill-rule:nonzero;stroke:black;stroke-width:17.5px;"/>
    <path d="M105,70L87.5,87.5" style="fill:none;fill-rule:nonzero;stroke:black;stroke-width:17.5px;"/>
    <path d="M87.5,87.5L78.75,96.25" style="fill:none;fill-rule:nonzero;stroke:black;stroke-width:17.5px;"/>
    <circle cx="122.5" cy="87.5" r="8.313"/>
    <circle cx="122.5" cy="122.5" r="8.313"/>
    <circle cx="122.5" cy="122.5" r="8.313"/>
    <circle cx="87.5" cy="122.5" r="8.313"/>
    <circle cx="87.5" cy="122.5" r="8.313"/>
    <circle cx="87.5" cy="87.5" r="8.313"/>
    <path d="M157.5,52.5L157.5,87.5" style="fill:none;fill-rule:nonzero;stroke:black;stroke-width:17.5px;"/>
    <path d="M105,70L122.5,52.5" style="fill:none;fill-rule:nonzero;stroke:black;stroke-width:17.5px;"/>
    <circle cx="157.5" cy="52.5" r="8.313"/>
    <circle cx="157.5" cy="87.5" r="8.313"/>
    <path d="M210,35L192.5,17.5" style="fill:none;fill-rule:nonzero;stroke:black;stroke-width:17.5px;"/>
    <path d="M157.5,52.5L157.5,17.5" style="fill:none;fill-rule:nonzero;stroke:black;stroke-width:17.5px;"/>
    <path d="M157.5,17.5L192.5,17.5" style="fill:none;fill-rule:nonzero;stroke:black;stroke-width:17.5px;"/>
    <circle cx="192.5" cy="17.5" r="8.313"/>
    <circle cx="157.5" cy="52.5" r="8.313"/>
    <circle cx="157.5" cy="17.5" r="8.313"/>
    <circle cx="157.5" cy="17.5" r="8.313"/>
    <circle cx="192.5" cy="17.5" r="8.313"/>
    <path d="M192.5,87.5L192.5,122.5" style="fill:none;fill-rule:nonzero;stroke:black;stroke-width:17.5px;"/>
    <path d="M192.5,122.5L157.5,122.5" style="fill:none;fill-rule:nonzero;stroke:black;stroke-width:17.5px;"/>
    <path d="M157.5,122.5L157.5,87.5" style="fill:none;fill-rule:nonzero;stroke:black;stroke-width:17.5px;"/>
    <circle cx="192.5" cy="87.5" r="8.313"/>
    <circle cx="192.5" cy="122.5" r="8.313"/>
    <circle cx="192.5" cy="122.5" r="8.313"/>
    <circle cx="157.5" cy="122.5" r="8.313"/>
    <circle cx="157.5" cy="122.5" r="8.313"/>
    <circle cx="157.5" cy="87.5" r="8.313"/>
    <path d="M210,35L192.5,17.5" style="fill:none;fill-rule:nonzero;stroke:black;stroke-width:17.5px;"/>
    <path d="M227.5,52.5L227.5,87.5" style="fill:none;fill-rule:nonzero;stroke:black;stroke-width:17.5px;"/>
    <path d="M192.5,87.5L192.5,52.5" style="fill:none;fill-rule:nonzero;stroke:black;stroke-width:17.5px;"/>
    <path d="M192.5,52.5L201.25,43.75" style="fill:none;fill-rule:nonzero;stroke:black;stroke-width:17.5px;"/>
    <path d="M210,35L227.5,52.5" style="fill:none;fill-rule:nonzero;stroke:black;stroke-width:17.5px;"/>
    <circle cx="227.5" cy="52.5" r="8.313"/>
    <circle cx="227.5" cy="87.5" r="8.313"/>
    <circle cx="192.5" cy="87.5" r="8.313"/>
    <circle cx="192.5" cy="52.5" r="8.313"/>
    <path d="M262.5,17.5L262.5,52.5" style="fill:none;fill-rule:nonzero;stroke:black;stroke-width:17.5px;"/>
    <path d="M210,35L227.5,52.5" style="fill:none;fill-rule:nonzero;stroke:black;stroke-width:17.5px;"/>
    <path d="M227.5,17.5L262.5,17.5" style="fill:none;fill-rule:nonzero;stroke:black;stroke-width:17.5px;"/>
    <path d="M227.5,17.5L218.75,26.25" style="fill:none;fill-rule:nonzero;stroke:black;stroke-width:17.5px;"/>
    <circle cx="262.5" cy="17.5" r="8.313"/>
    <circle cx="262.5" cy="52.5" r="8.313"/>
    <circle cx="227.5" cy="52.5" r="8.313"/>
    <circle cx="227.5" cy="17.5" r="8.313"/>
    <circle cx="262.5" cy="17.5" r="8.313"/>
    <path d="M262.5,87.5L262.5,122.5" style="fill:none;fill-rule:nonzero;stroke:black;stroke-width:17.5px;"/>
    <path d="M262.5,122.5L227.5,122.5" style="fill:none;fill-rule:nonzero;stroke:black;stroke-width:17.5px;"/>
    <path d="M227.5,122.5L227.5,87.5" style="fill:none;fill-rule:nonzero;stroke:black;stroke-width:17.5px;"/>
    <circle cx="262.5" cy="87.5" r="8.313"/>
    <circle cx="262.5" cy="122.5" r="8.313"/>
    <circle cx="262.5" cy="122.5" r="8.313"/>
    <circle cx="227.5" cy="122.5" r="8.313"/>
    <circle cx="227.5" cy="122.5" r="8.313"/>
    <circle cx="227.5" cy="87.5" r="8.313"/>
    <path d="M262.5,87.5L262.5,52.5" style="fill:none;fill-rule:nonzero;stroke:black;stroke-width:17.5px;"/>
    <circle cx="262.5" cy="87.5" r="8.313"/>
    <circle cx="262.5" cy="52.5" r="8.313"/>
    <path d="M350,35L332.5,17.5" style="fill:none;fill-rule:nonzero;stroke:black;stroke-width:17.5px;"/>
    <path d="M332.5,52.5L297.5,52.5" style="fill:none;fill-rule:nonzero;stroke:black;stroke-width:17.5px;"/>
    <path d="M332.5,52.5L341.25,43.75" style="fill:none;fill-rule:nonzero;stroke:black;stroke-width:17.5px;"/>
    <path d="M297.5,52.5L297.5,17.5" style="fill:none;fill-rule:nonzero;stroke:black;stroke-width:17.5px;"/>
    <path d="M297.5,17.5L332.5,17.5" style="fill:none;fill-rule:nonzero;stroke:black;stroke-width:17.5px;"/>
    <circle cx="332.5" cy="17.5" r="8.313"/>
    <circle cx="332.5" cy="52.5" r="8.313"/>
    <circle cx="297.5" cy="52.5" r="8.313"/>
    <circle cx="297.5" cy="52.5" r="8.313"/>
    <circle cx="297.5" cy="17.5" r="8.313"/>
    <circle cx="297.5" cy="17.5" r="8.313"/>
    <circle cx="332.5" cy="17.5" r="8.313"/>
    <path d="M350,105L332.5,87.5" style="fill:none;fill-rule:nonzero;stroke:black;stroke-width:17.5px;"/>
    <path d="M332.5,122.5L297.5,122.5" style="fill:none;fill-rule:nonzero;stroke:black;stroke-width:17.5px;"/>
    <path d="M332.5,122.5L341.25,113.75" style="fill:none;fill-rule:nonzero;stroke:black;stroke-width:17.5px;"/>
    <path d="M297.5,122.5L297.5,87.5" style="fill:none;fill-rule:nonzero;stroke:black;stroke-width:17.5px;"/>
    <path d="M297.5,87.5L332.5,87.5" style="fill:none;fill-rule:nonzero;stroke:black;stroke-width:17.5px;"/>
    <circle cx="332.5" cy="87.5" r="8.313"/>
    <circle cx="332.5" cy="122.5" r="8.313"/>
    <circle cx="297.5" cy="122.5" r="8.313"/>
    <circle cx="297.5" cy="122.5" r="8.313"/>
    <circle cx="297.5" cy="87.5" r="8.313"/>
    <circle cx="297.5" cy="87.5" r="8.313"/>
    <circle cx="332.5" cy="87.5" r="8.313"/>
    <path d="M350,35L332.5,17.5" style="fill:none;fill-rule:nonzero;stroke:black;stroke-width:17.5px;"/>
    <path d="M367.5,52.5L367.5,87.5" style="fill:none;fill-rule:nonzero;stroke:black;stroke-width:17.5px;"/>
    <path d="M367.5,87.5L358.75,96.25" style="fill:none;fill-rule:nonzero;stroke:black;stroke-width:17.5px;"/>
    <path d="M350,105L332.5,87.5" style="fill:none;fill-rule:nonzero;stroke:black;stroke-width:17.5px;"/>
    <path d="M350,35L367.5,52.5" style="fill:none;fill-rule:nonzero;stroke:black;stroke-width:17.5px;"/>
    <circle cx="367.5" cy="52.5" r="8.313"/>
    <circle cx="367.5" cy="87.5" r="8.313"/>
    <path d="M350,105L367.5,122.5" style="fill:none;fill-rule:nonzero;stroke:black;stroke-width:17.5px;"/>
    <path d="M402.5,17.5L402.5,52.5" style="fill:none;fill-rule:nonzero;stroke:black;stroke-width:17.5px;"/>
    <path d="M350,35L367.5,52.5" style="fill:none;fill-rule:nonzero;stroke:black;stroke-width:17.5px;"/>
    <path d="M367.5,17.5L402.5,17.5" style="fill:none;fill-rule:nonzero;stroke:black;stroke-width:17.5px;"/>
    <path d="M367.5,17.5L358.75,26.25" style="fill:none;fill-rule:nonzero;stroke:black;stroke-width:17.5px;"/>
    <circle cx="402.5" cy="17.5" r="8.313"/>
    <circle cx="402.5" cy="52.5" r="8.313"/>
    <circle cx="367.5" cy="52.5" r="8.313"/>
    <circle cx="367.5" cy="17.5" r="8.313"/>
    <circle cx="402.5" cy="17.5" r="8.313"/>
    <path d="M402.5,87.5L402.5,122.5" style="fill:none;fill-rule:nonzero;stroke:black;stroke-width:17.5px;"/>
    <path d="M402.5,122.5L367.5,122.5" style="fill:none;fill-rule:nonzero;stroke:black;stroke-width:17.5px;"/>
    <path d="M350,105L367.5,122.5" style="fill:none;fill-rule:nonzero;stroke:black;stroke-width:17.5px;"/>
    <circle cx="402.5" cy="87.5" r="8.313"/>
    <circle cx="402.5" cy="122.5" r="8.313"/>
    <circle cx="402.5" cy="122.5" r="8.313"/>
    <circle cx="367.5" cy="122.5" r="8.313"/>
    <circle cx="367.5" cy="122.5" r="8.313"/>
    <path d="M437.5,52.5L437.5,87.5" style="fill:none;fill-rule:nonzero;stroke:black;stroke-width:17.5px;"/>
    <path d="M402.5,87.5L402.5,52.5" style="fill:none;fill-rule:nonzero;stroke:black;stroke-width:17.5px;"/>
    <circle cx="437.5" cy="52.5" r="8.313"/>
    <circle cx="437.5" cy="87.5" r="8.313"/>
    <circle cx="402.5" cy="87.5" r="8.313"/>
    <circle cx="402.5" cy="52.5" r="8.313"/>
    <path d="M490,35L472.5,17.5" style="fill:none;fill-rule:nonzero;stroke:black;stroke-width:17.5px;"/>
    <path d="M437.5,52.5L437.5,17.5" style="fill:none;fill-rule:nonzero;stroke:black;stroke-width:17.5px;"/>
    <path d="M437.5,17.5L472.5,17.5" style="fill:none;fill-rule:nonzero;stroke:black;stroke-width:17.5px;"/>
    <circle cx="472.5" cy="17.5" r="8.313"/>
    <circle cx="437.5" cy="52.5" r="8.313"/>
    <circle cx="437.5" cy="17.5" r="8.313"/>
    <circle cx="437.5" cy="17.5" r="8.313"/>
    <circle cx="472.5" cy="17.5" r="8.313"/>
    <path d="M472.5,87.5L472.5,122.5" style="fill:none;fill-rule:nonzero;stroke:black;stroke-width:17.5px;"/>
    <path d="M472.5,122.5L437.5,122.5" style="fill:none;fill-rule:nonzero;stroke:black;stroke-width:17.5px;"/>
    <path d="M437.5,122.5L437.5,87.5" style="fill:none;fill-rule:nonzero;stroke:black;stroke-width:17.5px;"/>
    <circle cx="472.5" cy="87.5" r="8.313"/>
    <circle cx="472.5" cy="122.5" r="8.313"/>
    <circle cx="472.5" cy="122.5" r="8.313"/>
    <circle cx="437.5" cy="122.5" r="8.313"/>
    <circle cx="437.5" cy="122.5" r="8.313"/>
    <circle cx="437.5" cy="87.5" r="8.313"/>
    <path d="M490,35L472.5,17.5" style="fill:none;fill-rule:nonzero;stroke:black;stroke-width:17.5px;"/>
    <path d="M472.5,87.5L472.5,52.5" style="fill:none;fill-rule:nonzero;stroke:black;stroke-width:17.5px;"/>
    <path d="M472.5,52.5L481.25,43.75" style="fill:none;fill-rule:nonzero;stroke:black;stroke-width:17.5px;"/>
    <path d="M490,35L507.5,52.5" style="fill:none;fill-rule:nonzero;stroke:black;stroke-width:17.5px;"/>
    <circle cx="472.5" cy="87.5" r="8.313"/>
    <circle cx="472.5" cy="52.5" r="8.313"/>
    <path d="M542.5,17.5L542.5,52.5" style="fill:none;fill-rule:nonzero;stroke:black;stroke-width:17.5px;"/>
    <path d="M542.5,52.5L507.5,52.5" style="fill:none;fill-rule:nonzero;stroke:black;stroke-width:17.5px;"/>
    <path d="M490,35L507.5,52.5" style="fill:none;fill-rule:nonzero;stroke:black;stroke-width:17.5px;"/>
    <path d="M507.5,17.5L542.5,17.5" style="fill:none;fill-rule:nonzero;stroke:black;stroke-width:17.5px;"/>
    <path d="M507.5,17.5L498.75,26.25" style="fill:none;fill-rule:nonzero;stroke:black;stroke-width:17.5px;"/>
    <circle cx="542.5" cy="17.5" r="8.313"/>
    <circle cx="542.5" cy="52.5" r="8.313"/>
    <circle cx="542.5" cy="52.5" r="8.313"/>
    <circle cx="507.5" cy="52.5" r="8.313"/>
    <circle cx="507.5" cy="52.5" r="8.313"/>
    <circle cx="507.5" cy="17.5" r="8.313"/>
    <circle cx="542.5" cy="17.5" r="8.313"/>
    <path d="M542.5,87.5L542.5,122.5" style="fill:none;fill-rule:nonzero;stroke:black;stroke-width:17.5px;"/>
    <path d="M542.5,122.5L507.5,122.5" style="fill:none;fill-rule:nonzero;stroke:black;stroke-width:17.5px;"/>
    <path d="M507.5,122.5L507.5,87.5" style="fill:none;fill-rule:nonzero;stroke:black;stroke-width:17.5px;"/>
    <path d="M507.5,87.5L542.5,87.5" style="fill:none;fill-rule:nonzero;stroke:black;stroke-width:17.5px;"/>
    <circle cx="542.5" cy="87.5" r="8.313"/>
    <circle cx="542.5" cy="122.5" r="8.313"/>
    <circle cx="542.5" cy="122.5" r="8.313"/>
    <circle cx="507.5" cy="122.5" r="8.313"/>
    <circle cx="507.5" cy="122.5" r="8.313"/>
    <circle cx="507.5" cy="87.5" r="8.313"/>
    <circle cx="507.5" cy="87.5" r="8.313"/>
    <circle cx="542.5" cy="87.5" r="8.313"/>
    <path d="M35,70L17.5,87.5" style="fill:none;fill-rule:nonzero;stroke:black;stroke-width:17.5px;"/>
    <path d="M70,35L52.5,17.5" style="fill:none;fill-rule:nonzero;stroke:black;stroke-width:17.5px;"/>
    <path d="M35,70L52.5,52.5" style="fill:none;fill-rule:nonzero;stroke:black;stroke-width:17.5px;"/>
    <path d="M52.5,52.5L61.25,43.75" style="fill:none;fill-rule:nonzero;stroke:black;stroke-width:17.5px;"/>
    <path d="M17.5,52.5L17.5,17.5" style="fill:none;fill-rule:nonzero;stroke:black;stroke-width:17.5px;"/>
    <path d="M17.5,52.5L26.25,61.25" style="fill:none;fill-rule:nonzero;stroke:black;stroke-width:17.5px;"/>
    <path d="M17.5,17.5L52.5,17.5" style="fill:none;fill-rule:nonzero;stroke:black;stroke-width:17.5px;"/>
    <circle cx="52.5" cy="17.5" r="8.313"/>
    <circle cx="52.5" cy="52.5" r="8.313"/>
    <circle cx="17.5" cy="52.5" r="8.313"/>
    <circle cx="17.5" cy="17.5" r="8.313"/>
    <circle cx="17.5" cy="17.5" r="8.313"/>
    <circle cx="52.5" cy="17.5" r="8.313"/>
    <path d="M70,105L52.5,87.5" style="fill:none;fill-rule:nonzero;stroke:black;stroke-width:17.5px;"/>
    <path d="M52.5,87.5L43.75,78.75" style="fill:none;fill-rule:nonzero;stroke:black;stroke-width:17.5px;"/>
    <path d="M52.5,122.5L17.5,122.5" style="fill:none;fill-rule:nonzero;stroke:black;stroke-width:17.5px;"/>
    <path d="M52.5,122.5L61.25,113.75" style="fill:none;fill-rule:nonzero;stroke:black;stroke-width:17.5px;"/>
    <path d="M17.5,122.5L17.5,87.5" style="fill:none;fill-rule:nonzero;stroke:black;stroke-width:17.5px;"/>
    <path d="M35,70L17.5,87.5" style="fill:none;fill-rule:nonzero;stroke:black;stroke-width:17.5px;"/>
    <circle cx="52.5" cy="87.5" r="8.313"/>
    <circle cx="52.5" cy="122.5" r="8.313"/>
    <circle cx="17.5" cy="122.5" r="8.313"/>
    <circle cx="17.5" cy="122.5" r="8.313"/>
    <circle cx="17.5" cy="87.5" r="8.313"/>
    <circle cx="17.5" cy="87.5" r="8.313"/>
    <path d="M70,35L52.5,17.5" style="fill:none;fill-rule:nonzero;stroke:black;stroke-width:17.5px;"/>
    <path d="M105,70L87.5,87.5" style="fill:none;fill-rule:nonzero;stroke:black;stroke-width:17.5px;"/>
    <path d="M70,105L52.5,87.5" style="fill:none;fill-rule:nonzero;stroke:black;stroke-width:17.5px;"/>
    <path d="M35,70L52.5,52.5" style="fill:none;fill-rule:nonzero;stroke:black;stroke-width:17.5px;"/>
    <path d="M70,35L87.5,52.5" style="fill:none;fill-rule:nonzero;stroke:black;stroke-width:17.5px;"/>
    <path d="M70,105L87.5,122.5" style="fill:none;fill-rule:nonzero;stroke:black;stroke-width:17.5px;"/>
    <path d="M122.5,17.5L122.5,52.5" style="fill:none;fill-rule:nonzero;stroke:black;stroke-width:17.5px;"/>
    <path d="M105,70L122.5,52.5" style="fill:none;fill-rule:nonzero;stroke:black;stroke-width:17.5px;"/>
    <path d="M70,35L87.5,52.5" style="fill:none;fill-rule:nonzero;stroke:black;stroke-width:17.5px;"/>
    <path d="M87.5,52.5L96.25,61.25" style="fill:none;fill-rule:nonzero;stroke:black;stroke-width:17.5px;"/>
    <path d="M87.5,17.5L122.5,17.5" style="fill:none;fill-rule:nonzero;stroke:black;stroke-width:17.5px;"/>
    <path d="M87.5,17.5L78.75,26.25" style="fill:none;fill-rule:nonzero;stroke:black;stroke-width:17.5px;"/>
    <circle cx="122.5" cy="17.5" r="8.313"/>
    <circle cx="122.5" cy="52.5" r="8.313"/>
    <circle cx="122.5" cy="52.5" r="8.313"/>
    <circle cx="87.5" cy="52.5" r="8.313"/>
    <circle cx="87.5" cy="17.5" r="8.313"/>
    <circle cx="122.5" cy="17.5" r="8.313"/>
    <path d="M122.5,87.5L122.5,122.5" style="fill:none;fill-rule:nonzero;stroke:black;stroke-width:17.5px;"/>
    <path d="M122.5,87.5L113.75,78.75" style="fill:none;fill-rule:nonzero;stroke:black;stroke-width:17.5px;"/>
    <path d="M122.5,122.5L87.5,122.5" style="fill:none;fill-rule:nonzero;stroke:black;stroke-width:17.5px;"/>
    <path d="M70,105L87.5,122.5" style="fill:none;fill-rule:nonzero;stroke:black;stroke-width:17.5px;"/>
    <path d="M105,70L87.5,87.5" style="fill:none;fill-rule:nonzero;stroke:black;stroke-width:17.5px;"/>
    <path d="M87.5,87.5L78.75,96.25" style="fill:none;fill-rule:nonzero;stroke:black;stroke-width:17.5px;"/>
    <circle cx="122.5" cy="87.5" r="8.313"/>
    <circle cx="122.5" cy="122.5" r="8.313"/>
    <circle cx="122.5" cy="122.5" r="8.313"/>
    <circle cx="87.5" cy="122.5" r="8.313"/>
    <circle cx="87.5" cy="122.5" r="8.313"/>
    <circle cx="87.5" cy="87.5" r="8.313"/>
    <path d="M157.5,52.5L157.5,87.5" style="fill:none;fill-rule:nonzero;stroke:black;stroke-width:17.5px;"/>
    <path d="M105,70L122.5,52.5" style="fill:none;fill-rule:nonzero;stroke:black;stroke-width:17.5px;"/>
    <circle cx="157.5" cy="52.5" r="8.313"/>
    <circle cx="157.5" cy="87.5" r="8.313"/>
    <path d="M210,35L192.5,17.5" style="fill:none;fill-rule:nonzero;stroke:black;stroke-width:17.5px;"/>
    <path d="M157.5,52.5L157.5,17.5" style="fill:none;fill-rule:nonzero;stroke:black;stroke-width:17.5px;"/>
    <path d="M157.5,17.5L192.5,17.5" style="fill:none;fill-rule:nonzero;stroke:black;stroke-width:17.5px;"/>
    <circle cx="192.5" cy="17.5" r="8.313"/>
    <circle cx="157.5" cy="52.5" r="8.313"/>
    <circle cx="157.5" cy="17.5" r="8.313"/>
    <circle cx="157.5" cy="17.5" r="8.313"/>
    <circle cx="192.5" cy="17.5" r="8.313"/>
    <path d="M192.5,87.5L192.5,122.5" style="fill:none;fill-rule:nonzero;stroke:black;stroke-width:17.5px;"/>
    <path d="M192.5,122.5L157.5,122.5" style="fill:none;fill-rule:nonzero;stroke:black;stroke-width:17.5px;"/>
    <path d="M157.5,122.5L157.5,87.5" style="fill:none;fill-rule:nonzero;stroke:black;stroke-width:17.5px;"/>
    <circle cx="192.5" cy="87.5" r="8.313"/>
    <circle cx="192.5" cy="122.5" r="8.313"/>
    <circle cx="192.5" cy="122.5" r="8.313"/>
    <circle cx="157.5" cy="122.5" r="8.313"/>
    <circle cx="157.5" cy="122.5" r="8.313"/>
    <circle cx="157.5" cy="87.5" r="8.313"/>
    <path d="M210,35L192.5,17.5" style="fill:none;fill-rule:nonzero;stroke:black;stroke-width:17.5px;"/>
    <path d="M227.5,52.5L227.5,87.5" style="fill:none;fill-rule:nonzero;stroke:black;stroke-width:17.5px;"/>
    <path d="M192.5,87.5L192.5,52.5" style="fill:none;fill-rule:nonzero;stroke:black;stroke-width:17.5px;"/>
    <path d="M192.5,52.5L201.25,43.75" style="fill:none;fill-rule:nonzero;stroke:black;stroke-width:17.5px;"/>
    <path d="M210,35L227.5,52.5" style="fill:none;fill-rule:nonzero;stroke:black;stroke-width:17.5px;"/>
    <circle cx="227.5" cy="52.5" r="8.313"/>
    <circle cx="227.5" cy="87.5" r="8.313"/>
    <circle cx="192.5" cy="87.5" r="8.313"/>
    <circle cx="192.5" cy="52.5" r="8.313"/>
    <path d="M262.5,17.5L262.5,52.5" style="fill:none;fill-rule:nonzero;stroke:black;stroke-width:17.5px;"/>
    <path d="M210,35L227.5,52.5" style="fill:none;fill-rule:nonzero;stroke:black;stroke-width:17.5px;"/>
    <path d="M227.5,17.5L262.5,17.5" style="fill:none;fill-rule:nonzero;stroke:black;stroke-width:17.5px;"/>
    <path d="M227.5,17.5L218.75,26.25" style="fill:none;fill-rule:nonzero;stroke:black;stroke-width:17.5px;"/>
    <circle cx="262.5" cy="17.5" r="8.313"/>
    <circle cx="262.5" cy="52.5" r="8.313"/>
    <circle cx="227.5" cy="52.5" r="8.313"/>
    <circle cx="227.5" cy="17.5" r="8.313"/>
    <circle cx="262.5" cy="17.5" r="8.313"/>
    <path d="M262.5,87.5L262.5,122.5" style="fill:none;fill-rule:nonzero;stroke:black;stroke-width:17.5px;"/>
    <path d="M262.5,122.5L227.5,122.5" style="fill:none;fill-rule:nonzero;stroke:black;stroke-width:17.5px;"/>
    <path d="M227.5,122.5L227.5,87.5" style="fill:none;fill-rule:nonzero;stroke:black;stroke-width:17.5px;"/>
    <circle cx="262.5" cy="87.5" r="8.313"/>
    <circle cx="262.5" cy="122.5" r="8.313"/>
    <circle cx="262.5" cy="122.5" r="8.313"/>
    <circle cx="227.5" cy="122.5" r="8.313"/>
    <circle cx="227.5" cy="122.5" r="8.313"/>
    <circle cx="227.5" cy="87.5" r="8.313"/>
    <path d="M262.5,87.5L262.5,52.5" style="fill:none;fill-rule:nonzero;stroke:black;stroke-width:17.5px;"/>
    <circle cx="262.5" cy="87.5" r="8.313"/>
    <circle cx="262.5" cy="52.5" r="8.313"/>
    <path d="M350,35L332.5,17.5" style="fill:none;fill-rule:nonzero;stroke:black;stroke-width:17.5px;"/>
    <path d="M332.5,52.5L297.5,52.5" style="fill:none;fill-rule:nonzero;stroke:black;stroke-width:17.5px;"/>
    <path d="M332.5,52.5L341.25,43.75" style="fill:none;fill-rule:nonzero;stroke:black;stroke-width:17.5px;"/>
    <path d="M297.5,52.5L297.5,17.5" style="fill:none;fill-rule:nonzero;stroke:black;stroke-width:17.5px;"/>
    <path d="M297.5,17.5L332.5,17.5" style="fill:none;fill-rule:nonzero;stroke:black;stroke-width:17.5px;"/>
    <circle cx="332.5" cy="17.5" r="8.313"/>
    <circle cx="332.5" cy="52.5" r="8.313"/>
    <circle cx="297.5" cy="52.5" r="8.313"/>
    <circle cx="297.5" cy="52.5" r="8.313"/>
    <circle cx="297.5" cy="17.5" r="8.313"/>
    <circle cx="297.5" cy="17.5" r="8.313"/>
    <circle cx="332.5" cy="17.5" r="8.313"/>
    <path d="M350,105L332.5,87.5" style="fill:none;fill-rule:nonzero;stroke:black;stroke-width:17.5px;"/>
    <path d="M332.5,122.5L297.5,122.5" style="fill:none;fill-rule:nonzero;stroke:black;stroke-width:17.5px;"/>
    <path d="M332.5,122.5L341.25,113.75" style="fill:none;fill-rule:nonzero;stroke:black;stroke-width:17.5px;"/>
    <path d="M297.5,122.5L297.5,87.5" style="fill:none;fill-rule:nonzero;stroke:black;stroke-width:17.5px;"/>
    <path d="M297.5,87.5L332.5,87.5" style="fill:none;fill-rule:nonzero;stroke:black;stroke-width:17.5px;"/>
    <circle cx="332.5" cy="87.5" r="8.313"/>
    <circle cx="332.5" cy="122.5" r="8.313"/>
    <circle cx="297.5" cy="122.5" r="8.313"/>
    <circle cx="297.5" cy="122.5" r="8.313"/>
    <circle cx="297.5" cy="87.5" r="8.313"/>
    <circle cx="297.5" cy="87.5" r="8.313"/>
    <circle cx="332.5" cy="87.5" r="8.313"/>
    <path d="M350,35L332.5,17.5" style="fill:none;fill-rule:nonzero;stroke:black;stroke-width:17.5px;"/>
    <path d="M367.5,52.5L367.5,87.5" style="fill:none;fill-rule:nonzero;stroke:black;stroke-width:17.5px;"/>
    <path d="M367.5,87.5L358.75,96.25" style="fill:none;fill-rule:nonzero;stroke:black;stroke-width:17.5px;"/>
    <path d="M350,105L332.5,87.5" style="fill:none;fill-rule:nonzero;stroke:black;stroke-width:17.5px;"/>
    <path d="M350,35L367.5,52.5" style="fill:none;fill-rule:nonzero;stroke:black;stroke-width:17.5px;"/>
    <circle cx="367.5" cy="52.5" r="8.313"/>
    <circle cx="367.5" cy="87.5" r="8.313"/>
    <path d="M350,105L367.5,122.5" style="fill:none;fill-rule:nonzero;stroke:black;stroke-width:17.5px;"/>
    <path d="M402.5,17.5L402.5,52.5" style="fill:none;fill-rule:nonzero;stroke:black;stroke-width:17.5px;"/>
    <path d="M350,35L367.5,52.5" style="fill:none;fill-rule:nonzero;stroke:black;stroke-width:17.5px;"/>
    <path d="M367.5,17.5L402.5,17.5" style="fill:none;fill-rule:nonzero;stroke:black;stroke-width:17.5px;"/>
    <path d="M367.5,17.5L358.75,26.25" style="fill:none;fill-rule:nonzero;stroke:black;stroke-width:17.5px;"/>
    <circle cx="402.5" cy="17.5" r="8.313"/>
    <circle cx="402.5" cy="52.5" r="8.313"/>
    <circle cx="367.5" cy="52.5" r="8.313"/>
    <circle cx="367.5" cy="17.5" r="8.313"/>
    <circle cx="402.5" cy="17.5" r="8.313"/>
    <path d="M402.5,87.5L402.5,122.5" style="fill:none;fill-rule:nonzero;stroke:black;stroke-width:17.5px;"/>
    <path d="M402.5,122.5L367.5,122.5" style="fill:none;fill-rule:nonzero;stroke:black;stroke-width:17.5px;"/>
    <path d="M350,105L367.5,122.5" style="fill:none;fill-rule:nonzero;stroke:black;stroke-width:17.5px;"/>
    <circle cx="402.5" cy="87.5" r="8.313"/>
    <circle cx="402.5" cy="122.5" r="8.313"/>
    <circle cx="402.5" cy="122.5" r="8.313"/>
    <circle cx="367.5" cy="122.5" r="8.313"/>
    <circle cx="367.5" cy="122.5" r="8.313"/>
    <path d="M437.5,52.5L437.5,87.5" style="fill:none;fill-rule:nonzero;stroke:black;stroke-width:17.5px;"/>
    <path d="M402.5,87.5L402.5,52.5" style="fill:none;fill-rule:nonzero;stroke:black;stroke-width:17.5px;"/>
    <circle cx="437.5" cy="52.5" r="8.313"/>
    <circle cx="437.5" cy="87.5" r="8.313"/>
    <circle cx="402.5" cy="87.5" r="8.313"/>
    <circle cx="402.5" cy="52.5" r="8.313"/>
    <path d="M490,35L472.5,17.5" style="fill:none;fill-rule:nonzero;stroke:black;stroke-width:17.5px;"/>
    <path d="M437.5,52.5L437.5,17.5" style="fill:none;fill-rule:nonzero;stroke:black;stroke-width:17.5px;"/>
    <path d="M437.5,17.5L472.5,17.5" style="fill:none;fill-rule:nonzero;stroke:black;stroke-width:17.5px;"/>
    <circle cx="472.5" cy="17.5" r="8.313"/>
    <circle cx="437.5" cy="52.5" r="8.313"/>
    <circle cx="437.5" cy="17.5" r="8.313"/>
    <circle cx="437.5" cy="17.5" r="8.313"/>
    <circle cx="472.5" cy="17.5" r="8.313"/>
    <path d="M472.5,87.5L472.5,122.5" style="fill:none;fill-rule:nonzero;stroke:black;stroke-width:17.5px;"/>
    <path d="M472.5,122.5L437.5,122.5" style="fill:none;fill-rule:nonzero;stroke:black;stroke-width:17.5px;"/>
    <path d="M437.5,122.5L437.5,87.5" style="fill:none;fill-rule:nonzero;stroke:black;stroke-width:17.5px;"/>
    <circle cx="472.5" cy="87.5" r="8.313"/>
    <circle cx="472.5" cy="122.5" r="8.313"/>
    <circle cx="472.5" cy="122.5" r="8.313"/>
    <circle cx="437.5" cy="122.5" r="8.313"/>
    <circle cx="437.5" cy="122.5" r="8.313"/>
    <circle cx="437.5" cy="87.5" r="8.313"/>
    <path d="M490,35L472.5,17.5" style="fill:none;fill-rule:nonzero;stroke:black;stroke-width:17.5px;"/>
    <path d="M472.5,87.5L472.5,52.5" style="fill:none;fill-rule:nonzero;stroke:black;stroke-width:17.5px;"/>
    <path d="M472.5,52.5L481.25,43.75" style="fill:none;fill-rule:nonzero;stroke:black;stroke-width:17.5px;"/>
    <path d="M490,35L507.5,52.5" style="fill:none;fill-rule:nonzero;stroke:black;stroke-width:17.5px;"/>
    <circle cx="472.5" cy="87.5" r="8.313"/>
    <circle cx="472.5" cy="52.5" r="8.313"/>
    <path d="M542.5,17.5L542.5,52.5" style="fill:none;fill-rule:nonzero;stroke:black;stroke-width:17.5px;"/>
    <path d="M542.5,52.5L507.5,52.5" style="fill:none;fill-rule:nonzero;stroke:black;stroke-width:17.5px;"/>
    <path d="M490,35L507.5,52.5" style="fill:none;fill-rule:nonzero;stroke:black;stroke-width:17.5px;"/>
    <path d="M507.5,17.5L542.5,17.5" style="fill:none;fill-rule:nonzero;stroke:black;stroke-width:17.5px;"/>
    <path d="M507.5,17.5L498.75,26.25" style="fill:none;fill-rule:nonzero;stroke:black;stroke-width:17.5px;"/>
    <circle cx="542.5" cy="17.5" r="8.313"/>
    <circle cx="542.5" cy="52.5" r="8.313"/>
    <circle cx="542.5" cy="52.5" r="8.313"/>
    <circle cx="507.5" cy="52.5" r="8.313"/>
    <circle cx="507.5" cy="52.5" r="8.313"/>
    <circle cx="507.5" cy="17.5" r="8.313"/>
    <circle cx="542.5" cy="17.5" r="8.313"/>
    <path d="M542.5,87.5L542.5,122.5" style="fill:none;fill-rule:nonzero;stroke:black;stroke-width:17.5px;"/>
    <path d="M542.5,122.5L507.5,122.5" style="fill:none;fill-rule:nonzero;stroke:black;stroke-width:17.5px;"/>
    <path d="M507.5,122.5L507.5,87.5" style="fill:none;fill-rule:nonzero;stroke:black;stroke-width:17.5px;"/>
    <path d="M507.5,87.5L542.5,87.5" style="fill:none;fill-rule:nonzero;stroke:black;stroke-width:17.5px;"/>
    <circle cx="542.5" cy="87.5" r="8.313"/>
    <circle cx="542.5" cy="122.5" r="8.313"/>
    <circle cx="542.5" cy="122.5" r="8.313"/>
    <circle cx="507.5" cy="122.5" r="8.313"/>
    <circle cx="507.5" cy="122.5" r="8.313"/>
    <circle cx="507.5" cy="87.5" r="8.313"/>
    <circle cx="507.5" cy="87.5" r="8.313"/>
    <circle cx="542.5" cy="87.5" r="8.313"/>
</svg>
